<svg xmlns="http://www.w3.org/2000/svg" width="960" height="660" viewBox="0 0 960 660">
<rect width="960" height="660" fill="#F2F5F2"/>
<text x="40" y="50" font-family="DejaVu Sans" font-size="26" fill="#152119">Open portal / mask studies</text>
<text x="40" y="82" font-family="DejaVu Sans" font-size="14" fill="#536159">Deterministic candidate vector — conceptual masks, not Android launcher screenshots</text>
<defs><clipPath id="m0"><circle cx="54" cy="54" r="45"/></clipPath></defs>
<text x="40" y="126" font-family="DejaVu Sans" font-size="17" fill="#152119">Circle</text>
<g transform="translate(40 145)"><g clip-path="url(#m0)" color="#8FE5BD"><rect width="108" height="108" fill="#101713"/><g fill="none" stroke="currentColor" stroke-width="10" stroke-linecap="round" stroke-linejoin="round"><path d="M61 31H43A12 12 0 0 0 31 43V64"/><path d="M77 44V65A12 12 0 0 1 65 77H44"/></g></g></g>
<text x="166" y="186" font-family="DejaVu Sans" font-size="13" fill="#536159">Color</text>
<g transform="translate(166 204) scale(0.4444444444444444)"><g clip-path="url(#m0)" color="#8FE5BD"><rect width="108" height="108" fill="#101713"/><g fill="none" stroke="currentColor" stroke-width="10" stroke-linecap="round" stroke-linejoin="round"><path d="M61 31H43A12 12 0 0 0 31 43V64"/><path d="M77 44V65A12 12 0 0 1 65 77H44"/></g></g></g>
<g transform="translate(234 204) scale(0.2962962962962963)"><g clip-path="url(#m0)" color="#8FE5BD"><rect width="108" height="108" fill="#101713"/><g fill="none" stroke="currentColor" stroke-width="10" stroke-linecap="round" stroke-linejoin="round"><path d="M61 31H43A12 12 0 0 0 31 43V64"/><path d="M77 44V65A12 12 0 0 1 65 77H44"/></g></g></g>
<g transform="translate(40 290)"><g clip-path="url(#m0)" color="#213D30"><rect width="108" height="108" fill="#D1E7DC"/><g fill="none" stroke="currentColor" stroke-width="10" stroke-linecap="round" stroke-linejoin="round"><path d="M61 31H43A12 12 0 0 0 31 43V64"/><path d="M77 44V65A12 12 0 0 1 65 77H44"/></g></g></g>
<text x="166" y="331" font-family="DejaVu Sans" font-size="13" fill="#536159">Themed / light</text>
<g transform="translate(166 349) scale(0.4444444444444444)"><g clip-path="url(#m0)" color="#213D30"><rect width="108" height="108" fill="#D1E7DC"/><g fill="none" stroke="currentColor" stroke-width="10" stroke-linecap="round" stroke-linejoin="round"><path d="M61 31H43A12 12 0 0 0 31 43V64"/><path d="M77 44V65A12 12 0 0 1 65 77H44"/></g></g></g>
<g transform="translate(234 349) scale(0.2962962962962963)"><g clip-path="url(#m0)" color="#213D30"><rect width="108" height="108" fill="#D1E7DC"/><g fill="none" stroke="currentColor" stroke-width="10" stroke-linecap="round" stroke-linejoin="round"><path d="M61 31H43A12 12 0 0 0 31 43V64"/><path d="M77 44V65A12 12 0 0 1 65 77H44"/></g></g></g>
<g transform="translate(40 435)"><g clip-path="url(#m0)" color="#CFDDD5"><rect width="108" height="108" fill="#34423C"/><g fill="none" stroke="currentColor" stroke-width="10" stroke-linecap="round" stroke-linejoin="round"><path d="M61 31H43A12 12 0 0 0 31 43V64"/><path d="M77 44V65A12 12 0 0 1 65 77H44"/></g></g></g>
<text x="166" y="476" font-family="DejaVu Sans" font-size="13" fill="#536159">Themed / dark</text>
<g transform="translate(166 494) scale(0.4444444444444444)"><g clip-path="url(#m0)" color="#CFDDD5"><rect width="108" height="108" fill="#34423C"/><g fill="none" stroke="currentColor" stroke-width="10" stroke-linecap="round" stroke-linejoin="round"><path d="M61 31H43A12 12 0 0 0 31 43V64"/><path d="M77 44V65A12 12 0 0 1 65 77H44"/></g></g></g>
<g transform="translate(234 494) scale(0.2962962962962963)"><g clip-path="url(#m0)" color="#CFDDD5"><rect width="108" height="108" fill="#34423C"/><g fill="none" stroke="currentColor" stroke-width="10" stroke-linecap="round" stroke-linejoin="round"><path d="M61 31H43A12 12 0 0 0 31 43V64"/><path d="M77 44V65A12 12 0 0 1 65 77H44"/></g></g></g>
<defs><clipPath id="m1"><rect x="9" y="9" width="90" height="90" rx="22"/></clipPath></defs>
<text x="340" y="126" font-family="DejaVu Sans" font-size="17" fill="#152119">Rounded square</text>
<g transform="translate(340 145)"><g clip-path="url(#m1)" color="#8FE5BD"><rect width="108" height="108" fill="#101713"/><g fill="none" stroke="currentColor" stroke-width="10" stroke-linecap="round" stroke-linejoin="round"><path d="M61 31H43A12 12 0 0 0 31 43V64"/><path d="M77 44V65A12 12 0 0 1 65 77H44"/></g></g></g>
<text x="466" y="186" font-family="DejaVu Sans" font-size="13" fill="#536159">Color</text>
<g transform="translate(466 204) scale(0.4444444444444444)"><g clip-path="url(#m1)" color="#8FE5BD"><rect width="108" height="108" fill="#101713"/><g fill="none" stroke="currentColor" stroke-width="10" stroke-linecap="round" stroke-linejoin="round"><path d="M61 31H43A12 12 0 0 0 31 43V64"/><path d="M77 44V65A12 12 0 0 1 65 77H44"/></g></g></g>
<g transform="translate(534 204) scale(0.2962962962962963)"><g clip-path="url(#m1)" color="#8FE5BD"><rect width="108" height="108" fill="#101713"/><g fill="none" stroke="currentColor" stroke-width="10" stroke-linecap="round" stroke-linejoin="round"><path d="M61 31H43A12 12 0 0 0 31 43V64"/><path d="M77 44V65A12 12 0 0 1 65 77H44"/></g></g></g>
<g transform="translate(340 290)"><g clip-path="url(#m1)" color="#213D30"><rect width="108" height="108" fill="#D1E7DC"/><g fill="none" stroke="currentColor" stroke-width="10" stroke-linecap="round" stroke-linejoin="round"><path d="M61 31H43A12 12 0 0 0 31 43V64"/><path d="M77 44V65A12 12 0 0 1 65 77H44"/></g></g></g>
<text x="466" y="331" font-family="DejaVu Sans" font-size="13" fill="#536159">Themed / light</text>
<g transform="translate(466 349) scale(0.4444444444444444)"><g clip-path="url(#m1)" color="#213D30"><rect width="108" height="108" fill="#D1E7DC"/><g fill="none" stroke="currentColor" stroke-width="10" stroke-linecap="round" stroke-linejoin="round"><path d="M61 31H43A12 12 0 0 0 31 43V64"/><path d="M77 44V65A12 12 0 0 1 65 77H44"/></g></g></g>
<g transform="translate(534 349) scale(0.2962962962962963)"><g clip-path="url(#m1)" color="#213D30"><rect width="108" height="108" fill="#D1E7DC"/><g fill="none" stroke="currentColor" stroke-width="10" stroke-linecap="round" stroke-linejoin="round"><path d="M61 31H43A12 12 0 0 0 31 43V64"/><path d="M77 44V65A12 12 0 0 1 65 77H44"/></g></g></g>
<g transform="translate(340 435)"><g clip-path="url(#m1)" color="#CFDDD5"><rect width="108" height="108" fill="#34423C"/><g fill="none" stroke="currentColor" stroke-width="10" stroke-linecap="round" stroke-linejoin="round"><path d="M61 31H43A12 12 0 0 0 31 43V64"/><path d="M77 44V65A12 12 0 0 1 65 77H44"/></g></g></g>
<text x="466" y="476" font-family="DejaVu Sans" font-size="13" fill="#536159">Themed / dark</text>
<g transform="translate(466 494) scale(0.4444444444444444)"><g clip-path="url(#m1)" color="#CFDDD5"><rect width="108" height="108" fill="#34423C"/><g fill="none" stroke="currentColor" stroke-width="10" stroke-linecap="round" stroke-linejoin="round"><path d="M61 31H43A12 12 0 0 0 31 43V64"/><path d="M77 44V65A12 12 0 0 1 65 77H44"/></g></g></g>
<g transform="translate(534 494) scale(0.2962962962962963)"><g clip-path="url(#m1)" color="#CFDDD5"><rect width="108" height="108" fill="#34423C"/><g fill="none" stroke="currentColor" stroke-width="10" stroke-linecap="round" stroke-linejoin="round"><path d="M61 31H43A12 12 0 0 0 31 43V64"/><path d="M77 44V65A12 12 0 0 1 65 77H44"/></g></g></g>
<defs><clipPath id="m2"><path d="M54 9C91 9 99 17 99 54S91 99 54 99 9 91 9 54 17 9 54 9Z"/></clipPath></defs>
<text x="640" y="126" font-family="DejaVu Sans" font-size="17" fill="#152119">Squircle</text>
<g transform="translate(640 145)"><g clip-path="url(#m2)" color="#8FE5BD"><rect width="108" height="108" fill="#101713"/><g fill="none" stroke="currentColor" stroke-width="10" stroke-linecap="round" stroke-linejoin="round"><path d="M61 31H43A12 12 0 0 0 31 43V64"/><path d="M77 44V65A12 12 0 0 1 65 77H44"/></g></g></g>
<text x="766" y="186" font-family="DejaVu Sans" font-size="13" fill="#536159">Color</text>
<g transform="translate(766 204) scale(0.4444444444444444)"><g clip-path="url(#m2)" color="#8FE5BD"><rect width="108" height="108" fill="#101713"/><g fill="none" stroke="currentColor" stroke-width="10" stroke-linecap="round" stroke-linejoin="round"><path d="M61 31H43A12 12 0 0 0 31 43V64"/><path d="M77 44V65A12 12 0 0 1 65 77H44"/></g></g></g>
<g transform="translate(834 204) scale(0.2962962962962963)"><g clip-path="url(#m2)" color="#8FE5BD"><rect width="108" height="108" fill="#101713"/><g fill="none" stroke="currentColor" stroke-width="10" stroke-linecap="round" stroke-linejoin="round"><path d="M61 31H43A12 12 0 0 0 31 43V64"/><path d="M77 44V65A12 12 0 0 1 65 77H44"/></g></g></g>
<g transform="translate(640 290)"><g clip-path="url(#m2)" color="#213D30"><rect width="108" height="108" fill="#D1E7DC"/><g fill="none" stroke="currentColor" stroke-width="10" stroke-linecap="round" stroke-linejoin="round"><path d="M61 31H43A12 12 0 0 0 31 43V64"/><path d="M77 44V65A12 12 0 0 1 65 77H44"/></g></g></g>
<text x="766" y="331" font-family="DejaVu Sans" font-size="13" fill="#536159">Themed / light</text>
<g transform="translate(766 349) scale(0.4444444444444444)"><g clip-path="url(#m2)" color="#213D30"><rect width="108" height="108" fill="#D1E7DC"/><g fill="none" stroke="currentColor" stroke-width="10" stroke-linecap="round" stroke-linejoin="round"><path d="M61 31H43A12 12 0 0 0 31 43V64"/><path d="M77 44V65A12 12 0 0 1 65 77H44"/></g></g></g>
<g transform="translate(834 349) scale(0.2962962962962963)"><g clip-path="url(#m2)" color="#213D30"><rect width="108" height="108" fill="#D1E7DC"/><g fill="none" stroke="currentColor" stroke-width="10" stroke-linecap="round" stroke-linejoin="round"><path d="M61 31H43A12 12 0 0 0 31 43V64"/><path d="M77 44V65A12 12 0 0 1 65 77H44"/></g></g></g>
<g transform="translate(640 435)"><g clip-path="url(#m2)" color="#CFDDD5"><rect width="108" height="108" fill="#34423C"/><g fill="none" stroke="currentColor" stroke-width="10" stroke-linecap="round" stroke-linejoin="round"><path d="M61 31H43A12 12 0 0 0 31 43V64"/><path d="M77 44V65A12 12 0 0 1 65 77H44"/></g></g></g>
<text x="766" y="476" font-family="DejaVu Sans" font-size="13" fill="#536159">Themed / dark</text>
<g transform="translate(766 494) scale(0.4444444444444444)"><g clip-path="url(#m2)" color="#CFDDD5"><rect width="108" height="108" fill="#34423C"/><g fill="none" stroke="currentColor" stroke-width="10" stroke-linecap="round" stroke-linejoin="round"><path d="M61 31H43A12 12 0 0 0 31 43V64"/><path d="M77 44V65A12 12 0 0 1 65 77H44"/></g></g></g>
<g transform="translate(834 494) scale(0.2962962962962963)"><g clip-path="url(#m2)" color="#CFDDD5"><rect width="108" height="108" fill="#34423C"/><g fill="none" stroke="currentColor" stroke-width="10" stroke-linecap="round" stroke-linejoin="round"><path d="M61 31H43A12 12 0 0 0 31 43V64"/><path d="M77 44V65A12 12 0 0 1 65 77H44"/></g></g></g>
<text x="40" y="631" font-family="DejaVu Sans" font-size="13" fill="#536159">108-unit artwork • 10-unit strokes • same silhouette at 48 / 32 reference sizes • Android source resources updated; not installed</text></svg>
